<mxfile host="Electron" modified="2024-04-18T06:59:11.933Z" agent="Mozilla/5.0 (Macintosh; Intel Mac OS X 10_15_7) AppleWebKit/537.36 (KHTML, like Gecko) draw.io/24.1.0 Chrome/120.0.6099.109 Electron/28.1.0 Safari/537.36" etag="3qhqi4NVPK-MPCNuevl1" version="24.1.0" type="device">
  <diagram name="Page-1" id="0qjQd0bIqAvKOakUr5sT">
    <mxGraphModel dx="1434" dy="795" grid="1" gridSize="10" guides="1" tooltips="1" connect="1" arrows="1" fold="1" page="1" pageScale="1" pageWidth="850" pageHeight="1100" math="0" shadow="0">
      <root>
        <mxCell id="0" />
        <mxCell id="1" parent="0" />
        <mxCell id="B33dUFEOLYse5lPXIUkT-1" value="0&amp;nbsp; 0&amp;nbsp; 0&amp;nbsp; 0&amp;nbsp; 0&lt;div&gt;0&amp;nbsp; 0&amp;nbsp; 0&amp;nbsp; 0&amp;nbsp; 0&lt;/div&gt;&lt;div&gt;0&amp;nbsp; 0&amp;nbsp; 0&amp;nbsp; 0&amp;nbsp; 0&lt;/div&gt;" style="text;strokeColor=none;align=center;fillColor=none;html=1;verticalAlign=middle;whiteSpace=wrap;rounded=0;shadow=0;" parent="1" vertex="1">
          <mxGeometry x="90" y="380" width="70" height="50" as="geometry" />
        </mxCell>
        <mxCell id="B33dUFEOLYse5lPXIUkT-2" value="" style="shape=flexArrow;endArrow=classic;html=1;rounded=0;strokeColor=none;fillColor=#c6c3c3;gradientColor=#faf4f4;shadow=0;" parent="1" edge="1">
          <mxGeometry width="50" height="50" relative="1" as="geometry">
            <mxPoint x="175" y="404.5" as="sourcePoint" />
            <mxPoint x="320" y="405" as="targetPoint" />
          </mxGeometry>
        </mxCell>
        <mxCell id="B33dUFEOLYse5lPXIUkT-4" value="X&amp;nbsp; O&amp;nbsp; O&amp;nbsp; O&amp;nbsp; O&lt;br&gt;&lt;div&gt;&lt;span style=&quot;background-color: initial;&quot;&gt;X&lt;/span&gt;&amp;nbsp; X&amp;nbsp;&amp;nbsp;&lt;span style=&quot;background-color: initial;&quot;&gt;O&amp;nbsp; O&amp;nbsp; O&lt;/span&gt;&lt;/div&gt;&lt;div&gt;X&amp;nbsp; O&amp;nbsp;&amp;nbsp;&lt;span style=&quot;background-color: initial;&quot;&gt;O&amp;nbsp; O&amp;nbsp; O&lt;/span&gt;&lt;/div&gt;" style="text;strokeColor=none;align=center;fillColor=none;html=1;verticalAlign=middle;whiteSpace=wrap;rounded=0;shadow=0;" parent="1" vertex="1">
          <mxGeometry x="200" y="380" width="80" height="50" as="geometry" />
        </mxCell>
        <mxCell id="B33dUFEOLYse5lPXIUkT-6" value="0&amp;nbsp; 0&amp;nbsp; 0&amp;nbsp; 0&amp;nbsp; 0&lt;div&gt;0&amp;nbsp; 0&amp;nbsp; 1&amp;nbsp; 0&amp;nbsp; 0&lt;/div&gt;&lt;div&gt;0&amp;nbsp; 0&amp;nbsp; 0&amp;nbsp; 0&amp;nbsp; 0&lt;/div&gt;" style="text;strokeColor=none;align=center;fillColor=none;html=1;verticalAlign=middle;whiteSpace=wrap;rounded=0;shadow=0;" parent="1" vertex="1">
          <mxGeometry x="330" y="380" width="70" height="50" as="geometry" />
        </mxCell>
      </root>
    </mxGraphModel>
  </diagram>
</mxfile>
